# xmcd CD database file
#
# Track frame offsets:
#	150
#	13775
#	26962
#	45027
#	59155
#	77007
#	88197
#	103182
#	115970
#	129560
#	143320
#	154895
#	168910
#	181572
#
# Disc length: 2602 seconds
#
# Revision: 0
# Processed by: cddbd v1.4PL0 Copyright (c) Steve Scherf et al.
# Submitted via: Feurio! 1.63 - http://www.feurio.com
#
DISCID=af0a280e
DTITLE=Various Artist - 20th Century Soul
DYEAR=1994
DGENRE=Folk
TTITLE0=Ben E. King - Spanish Harlem
TTITLE1=Percy Sledge - When A Man Loves A Woman
TTITLE2=James Brown - It'S A Man's World
TTITLE3=Billy Ocean - Love Really Hurts Without You
TTITLE4=Brook Brenton - Rainy Night In Georgia
TTITLE5=Solomon Burke - If You Need Me
TTITLE6=Martha Reeves - I Heard It Through The Grapevine
TTITLE7=Robert Knight - Everlasting Love
TTITLE8=Percy Sledge - My Special Prayer
TTITLE9=Ben E. King - Stand By Me
TTITLE10=Sam and Dave - Soul Man
TTITLE11=The Foundations - Baby, Now That I've Found You
TTITLE12=Mary Wells - My Guy
TTITLE13=Eddie Floyd - Knock On Wood
EXTD=
EXTT0=
EXTT1=
EXTT2=
EXTT3=
EXTT4=
EXTT5=
EXTT6=
EXTT7=
EXTT8=
EXTT9=
EXTT10=
EXTT11=
EXTT12=
EXTT13=
PLAYORDER=
